<svg width="83" height="60" viewBox="0 0 83 60" fill="none" xmlns="http://www.w3.org/2000/svg">
<rect width="83" height="60" fill="rgba(0,0,0,0)"/>
<g clip-path="url(#clip0_0_1)">
<g filter="url(#filter0_d_0_1)">
<path d="M48.6459 46.72L47.6059 43.44C44.5126 45.68 41.5259 46.8 38.6459 46.8C36.0326 46.8 33.7526 46.3333 31.8059 45.4C29.8593 44.44 28.2459 43.1867 26.9659 41.64C25.6859 40.0667 24.7259 38.2933 24.0859 36.32C23.4726 34.32 23.1659 32.28 23.1659 30.2C23.1659 28.0933 23.5259 26.04 24.2459 24.04C24.9926 22.0133 26.0726 20.2133 27.4859 18.64C28.9259 17.0667 30.6726 15.8 32.7259 14.84C34.7793 13.8533 37.1259 13.36 39.7659 13.36C43.4459 13.36 46.8326 14.16 49.9259 15.76V23.44C49.4459 23.52 49.0193 23.56 48.6459 23.56C48.2459 23.56 47.9126 23.52 47.6459 23.44L46.3659 16.76C44.6593 15.6933 42.2993 15.16 39.2859 15.16C37.6059 15.16 36.0859 15.5467 34.7259 16.32C33.3659 17.0667 32.1926 18.0933 31.2059 19.4C30.2193 20.68 29.4593 22.2 28.9259 23.96C28.3926 25.6933 28.1259 27.5467 28.1259 29.52C28.1259 31.6267 28.3659 33.5733 28.8459 35.36C29.3526 37.1467 30.0593 38.6933 30.9659 40C31.8726 41.3067 32.9659 42.3333 34.2459 43.08C35.5526 43.8 37.0059 44.16 38.6059 44.16C41.1926 44.16 43.7393 43.4533 46.2459 42.04V33.52L43.0059 33.12C42.9526 32.9867 42.9259 32.7733 42.9259 32.48C42.9259 32.3467 42.9259 32.2133 42.9259 32.08C42.9259 31.9467 42.9526 31.8 43.0059 31.64C43.7526 31.6933 44.5659 31.7333 45.4459 31.76C46.3526 31.7867 47.3659 31.8 48.4859 31.8C50.4326 31.8 52.2726 31.76 54.0059 31.68C54.0859 31.92 54.1259 32.16 54.1259 32.4C54.1259 32.64 54.0859 32.88 54.0059 33.12L50.6859 33.6C50.6326 34.1067 50.5926 34.7467 50.5659 35.52C50.5393 36.2933 50.5259 37.2133 50.5259 38.28V42.32L50.1259 46.72C50.0193 46.7733 49.9126 46.8 49.8059 46.8C49.6993 46.8 49.5793 46.8 49.4459 46.8C49.3126 46.8 49.1793 46.8 49.0459 46.8C48.9126 46.8 48.7793 46.7733 48.6459 46.72Z" fill="grey"/>
</g>
</g>
<defs>
<filter id="filter0_d_0_1" x="6.16594" y="-0.640015" width="47.96" height="47.4401" filterUnits="userSpaceOnUse" color-interpolation-filters="sRGB">
<feFlood flood-opacity="0" result="BackgroundImageFix"/>
<feColorMatrix in="SourceAlpha" type="matrix" values="0 0 0 0 0 0 0 0 0 0 0 0 0 0 0 0 0 0 127 0" result="hardAlpha"/>
<feOffset dx="-13" dy="-10"/>
<feGaussianBlur stdDeviation="2"/>
<feComposite in2="hardAlpha" operator="out"/>
<feColorMatrix type="matrix" values="0 0 0 0 0 0 0 0 0 0 0 0 0 0 0 0 0 0 1 0"/>
<feBlend mode="normal" in2="BackgroundImageFix" result="effect1_dropShadow_0_1"/>
<feBlend mode="normal" in="SourceGraphic" in2="effect1_dropShadow_0_1" result="shape"/>
</filter>
<clipPath id="clip0_0_1">
<rect width="83" height="60" fill="white" />
</clipPath>
</defs>
</svg>
